<?xml version="1.0" encoding="UTF-8" standalone="no"?><svg xmlns="http://www.w3.org/2000/svg" xmlns:xlink="http://www.w3.org/1999/xlink" contentScriptType="application/ecmascript" contentStyleType="text/css" height="226px" preserveAspectRatio="none" style="width:182px;height:226px;" version="1.1" viewBox="0 0 182 226" width="182px" zoomAndPan="magnify"><defs><filter height="300%" id="f1ajbqyx2i5ejq" width="300%" x="-1" y="-1"><feGaussianBlur result="blurOut" stdDeviation="2.0"/><feColorMatrix in="blurOut" result="blurOut2" type="matrix" values="0 0 0 0 0 0 0 0 0 0 0 0 0 0 0 0 0 0 .4 0"/><feOffset dx="4.0" dy="4.0" in="blurOut2" result="blurOut3"/><feBlend in="SourceGraphic" in2="blurOut3" mode="normal"/></filter></defs><g><!--class Stage--><rect fill="#FEFECE" filter="url(#f1ajbqyx2i5ejq)" height="48" id="Stage" style="stroke: #A80036; stroke-width: 1.5;" width="69" x="54" y="8"/><ellipse cx="69" cy="24" fill="#ADD1B2" rx="11" ry="11" style="stroke: #A80036; stroke-width: 1.0;"/><path d="M71.3438,19.6719 L71.5156,19.75 C71.7344,19.4375 71.9375,19.3438 72.2344,19.3438 C72.5313,19.3438 72.8125,19.4844 72.9688,19.75 C73.0625,19.9063 73.0781,20.0313 73.0781,20.4688 L73.0781,21.8906 C73.0781,22.3125 73.0469,22.5 72.9375,22.6563 C72.7656,22.875 72.5,23.0156 72.2344,23.0156 C72.0156,23.0156 71.7813,22.9063 71.6406,22.7656 C71.5,22.6406 71.4688,22.5156 71.4063,22.1094 C71.3125,21.7031 71.1406,21.4844 70.6563,21.2031 C70.1875,20.9531 69.5781,20.7969 69,20.7969 C67.2656,20.7969 66.0156,22.1094 66.0156,23.8906 L66.0156,24.9844 C66.0156,26.6875 67.3125,27.7813 69.3594,27.7813 C70.125,27.7813 70.8125,27.6563 71.2344,27.3906 C71.4219,27.2969 71.4219,27.2969 71.875,26.8125 C72.0625,26.625 72.2656,26.5469 72.4844,26.5469 C72.9531,26.5469 73.3438,26.9375 73.3438,27.3906 C73.3438,27.7813 73.0156,28.2344 72.4375,28.6406 C71.6875,29.1875 70.5313,29.4844 69.3125,29.4844 C66.4219,29.4844 64.3125,27.5938 64.3125,25.0156 L64.3125,23.8906 C64.3125,21.1719 66.3125,19.0938 68.9375,19.0938 C69.8125,19.0938 70.4063,19.2344 71.3438,19.6719 Z "/><text fill="#000000" font-family="sans-serif" font-size="12" lengthAdjust="spacingAndGlyphs" textLength="37" x="83" y="28.1543">Stage</text><line style="stroke: #A80036; stroke-width: 1.5;" x1="55" x2="122" y1="40" y2="40"/><line style="stroke: #A80036; stroke-width: 1.5;" x1="55" x2="122" y1="48" y2="48"/><!--class Timeout--><rect fill="#FEFECE" filter="url(#f1ajbqyx2i5ejq)" height="99.2188" id="Timeout" style="stroke: #A80036; stroke-width: 1.5;" width="165" x="6" y="116"/><ellipse cx="59.25" cy="132" fill="#ADD1B2" rx="11" ry="11" style="stroke: #A80036; stroke-width: 1.0;"/><path d="M61.5938,127.6719 L61.7656,127.75 C61.9844,127.4375 62.1875,127.3438 62.4844,127.3438 C62.7813,127.3438 63.0625,127.4844 63.2188,127.75 C63.3125,127.9063 63.3281,128.0313 63.3281,128.4688 L63.3281,129.8906 C63.3281,130.3125 63.2969,130.5 63.1875,130.6563 C63.0156,130.875 62.75,131.0156 62.4844,131.0156 C62.2656,131.0156 62.0313,130.9063 61.8906,130.7656 C61.75,130.6406 61.7188,130.5156 61.6563,130.1094 C61.5625,129.7031 61.3906,129.4844 60.9063,129.2031 C60.4375,128.9531 59.8281,128.7969 59.25,128.7969 C57.5156,128.7969 56.2656,130.1094 56.2656,131.8906 L56.2656,132.9844 C56.2656,134.6875 57.5625,135.7813 59.6094,135.7813 C60.375,135.7813 61.0625,135.6563 61.4844,135.3906 C61.6719,135.2969 61.6719,135.2969 62.125,134.8125 C62.3125,134.625 62.5156,134.5469 62.7344,134.5469 C63.2031,134.5469 63.5938,134.9375 63.5938,135.3906 C63.5938,135.7813 63.2656,136.2344 62.6875,136.6406 C61.9375,137.1875 60.7813,137.4844 59.5625,137.4844 C56.6719,137.4844 54.5625,135.5938 54.5625,133.0156 L54.5625,131.8906 C54.5625,129.1719 56.5625,127.0938 59.1875,127.0938 C60.0625,127.0938 60.6563,127.2344 61.5938,127.6719 Z "/><text fill="#000000" font-family="sans-serif" font-size="12" lengthAdjust="spacingAndGlyphs" textLength="50" x="79.75" y="136.1543">Timeout</text><line style="stroke: #A80036; stroke-width: 1.5;" x1="7" x2="170" y1="148" y2="148"/><ellipse cx="17" cy="159.9023" fill="none" rx="3" ry="3" style="stroke: #038048; stroke-width: 1.0;"/><text fill="#000000" font-family="sans-serif" font-size="11" lengthAdjust="spacingAndGlyphs" textLength="73" x="26" y="162.2104">stage: Stage</text><line style="stroke: #A80036; stroke-width: 1.5;" x1="7" x2="170" y1="168.8047" y2="168.8047"/><ellipse cx="17" cy="180.707" fill="#84BE84" rx="3" ry="3" style="stroke: #038048; stroke-width: 1.0;"/><text fill="#000000" font-family="sans-serif" font-size="11" lengthAdjust="spacingAndGlyphs" textLength="139" x="26" y="183.0151">constructor:function(cfg)</text><ellipse cx="17" cy="193.5117" fill="#84BE84" rx="3" ry="3" style="stroke: #038048; stroke-width: 1.0;"/><text fill="#000000" font-family="sans-serif" font-size="11" lengthAdjust="spacingAndGlyphs" textLength="116" x="26" y="195.8198">timeout:function(ctx)</text><ellipse cx="17" cy="206.3164" fill="#84BE84" rx="3" ry="3" style="stroke: #038048; stroke-width: 1.0;"/><text fill="#000000" font-family="sans-serif" font-size="11" lengthAdjust="spacingAndGlyphs" textLength="119" x="26" y="208.6245">overdue:function(ctx)</text><!--link Stage to Timeout--><path d="M88.5,76.511 C88.5,89.141 88.5,103.012 88.5,115.9312 " fill="none" id="Stage-Timeout" style="stroke: #A80036; stroke-width: 1.0;"/><polygon fill="none" points="81.5001,76.207,88.5,56.207,95.5001,76.207,81.5001,76.207" style="stroke: #A80036; stroke-width: 1.0;"/><!--
@startuml
Class Stage
    Class Timeout {
        +constructor:function(cfg)
        +timeout:function(ctx)
        +overdue:function(ctx)
        +stage: Stage
    }
    Stage <|- - Timeout
@enduml

PlantUML version 1.2019.08(Sat Jul 13 19:25:14 UTC 2019)
(GPL source distribution)
Java Runtime: Java(TM) SE Runtime Environment
JVM: Java HotSpot(TM) 64-Bit Server VM
Java Version: 1.7.0_25-b15
Operating System: Linux
Default Encoding: UTF-8
Language: en
Country: US
--></g></svg>